PathFileType	4	(X/Y/Z)	Patient4_TMGait_0pt2_02_left_19.trc.trc
DataRate	CameraRate	NumFrames	NumMarkers	Units	OrigDataRate	OrigDataStartFrame	OrigNumFrames
46.357615894040	46.357615894040	4	33	mm	46.357615894040	1	       141
Frame#	Time	R.Midfoot.Superior			Sacral			L.Shoulder			Chest			R.Shoulder			Neck			R.ASIS			L.ASIS			R.Thigh.Superior			R.Thigh.Lateral			R.Thigh.Inferior			R.Patella			L.Thigh.Superior			L.Thigh.Lateral			L.Thigh.Inferior			L.Patella			L.Shank.Superior			L.Shank.Lateral			L.Shank.Inferior			R.Shank.Superior			R.Shank.Lateral			R.Shank.Inferior			R.Heel			R.Midfoot.Lateral			R.Toe			L.Heel			L.Midfoot.Lateral			L.Midfoot.Superior			L.Toe			L.Elbow			L.Wrist			R.Elbow			R.Wrist			
		X1	Y1	Z1	X2	Y2	Z2	X3	Y3	Z3	X4	Y4	Z4	X5	Y5	Z5	X6	Y6	Z6	X7	Y7	Z7	X8	Y8	Z8	X9	Y9	Z9	X10	Y10	Z10	X11	Y11	Z11	X12	Y12	Z12	X13	Y13	Z13	X14	Y14	Z14	X15	Y15	Z15	X16	Y16	Z16	X17	Y17	Z17	X18	Y18	Z18	X19	Y19	Z19	X20	Y20	Z20	X21	Y21	Z21	X22	Y22	Z22	X23	Y23	Z23	X24	Y24	Z24	X25	Y25	Z25	X26	Y26	Z26	X27	Y27	Z27	X28	Y28	Z28	X29	Y29	Z29	X30	Y30	Z30	X31	Y31	Z31	X32	Y32	Z32	X33	Y33	Z33	

1	43.120000000000	1157.804356698003	95.965231616118	592.246988958711	949.610250121386	995.520055293247	543.560443707401	1144.728633306137	1423.214109828665	365.290888082106	1226.586469623776	1356.639437044847	538.187560217205	1125.255738537724	1436.017275682043	698.113568274543	1111.381480790593	1487.757358773690	518.153993377835	1177.486020254055	935.047453657093	670.961337526164	1172.564978814223	956.010101709716	395.166080606041	1229.027608450512	736.860695888875	622.244047697386	1156.401803793495	618.087968080016	675.370406306640	1231.659317746326	574.230829600610	588.852706903262	1235.485970490345	480.344228995729	589.621308396663	1242.427074849941	758.194772175788	417.061783712975	1183.530394930516	637.039949981829	333.659583577916	1276.898188192048	562.411554113768	396.909899436530	1279.565982634343	474.163546813610	386.433478848568	1210.519340729610	414.683213660565	369.276697292129	1076.986112170700	381.623162038932	297.097331950433	1050.408014086386	250.457819241174	342.689157408110	1195.377857828681	392.665668706252	594.431817573154	1116.611158934078	294.836828136627	658.033175071218	1138.804610988988	198.904627292176	588.090443016096	984.715959533654	44.088422779675	569.407743165879	1073.023142171813	37.491804088518	637.310421306430	1279.843516323515	44.919212236904	613.099392448499	855.126900221419	201.977151428758	351.399883493378	916.471065080231	149.556439676944	278.525818881792	1018.144656213263	145.347757322868	312.070761757288	1087.467890295147	29.388950020737	292.645465956917	1203.492604453496	1075.155833694043	248.655516186558	1382.613876353894	881.795789683516	261.327821466306	1066.800913822529	1095.991012622594	832.405357956401	1235.728858968586	894.378842460112	835.015369784343	
2	43.141571428571	1153.870370569542	95.903157030508	592.025727102063	949.983148677721	991.380071940164	547.283691785970	1140.060377725469	1418.947943781318	364.998327573968	1224.702956244430	1354.181544246688	537.103460138088	1125.066035312599	1433.516521735672	698.264370634146	1108.944955229325	1484.484811205243	518.010554236112	1179.554772290148	932.599963845650	672.639278233905	1171.930834902743	953.620081586199	397.131196754731	1232.942555557215	734.882525155404	622.790114894449	1161.477013545307	615.125903609548	675.249640164652	1236.564699200822	572.271050559151	587.854420657372	1240.758312645914	477.268415445113	587.975001120700	1246.913879849412	759.798995069235	421.925380995766	1193.225206244302	637.160628221306	338.472319372747	1288.165853847421	565.442508071322	404.043989733818	1293.175328880657	476.324839997825	392.970742186363	1223.392819343364	416.284318664685	374.373433341826	1089.071245662330	386.262250045780	302.061723230605	1060.256432614901	255.117300228079	346.205348392501	1198.304498033996	389.712380169394	592.908500141636	1118.071818300162	293.684205517198	657.160707335354	1137.617132482756	197.454930392703	587.247192916695	980.650787285035	44.579811725443	569.414757754913	1068.859293052127	37.648283701847	637.162565859052	1275.718688825055	44.306768079301	613.156315711074	863.935741843424	209.364959091064	353.957834077771	925.075784492731	157.322638281609	280.549661160344	1026.649708331801	151.274650302941	314.454435886823	1094.399978990587	33.802072487089	293.366922369264	1185.313291580868	1066.950321780529	254.284095804680	1340.296573247118	859.971232834021	266.493296358623	1084.770528535955	1093.082561033425	834.929110577949	1268.406719943578	910.086646830648	832.460147940859	
3	43.163142857143	1149.767358589631	95.834827024813	591.815399914348	950.354093799137	987.307078909600	551.095610663935	1135.307864822199	1414.707350632833	364.692758482925	1222.857724464849	1351.712530805798	535.914126272557	1125.092739084867	1431.042391317922	698.386041946296	1106.540353161614	1481.243921693080	517.865734400974	1181.667174699381	930.159703627358	674.214289206452	1171.132827579301	951.177825061280	398.982533330221	1236.734506341120	732.859344354949	623.242942858474	1166.411631170781	612.172311678521	675.103744735233	1241.272479795013	570.288619621060	586.810352521765	1245.768490035493	474.179728691993	586.277139236659	1251.210384862281	761.475609869343	426.536222594356	1202.790683286559	637.362436073825	343.113791308634	1299.184097074326	568.572445898520	410.841007752486	1306.558165960874	478.664977025733	399.237587285001	1236.226510109400	417.945524912816	379.313278212387	1101.054491289834	390.388722912753	307.152278077229	1070.662334582889	259.101927937359	349.886398606355	1201.027935201973	386.778690111302	591.370974097390	1119.372546517654	292.523574650456	656.298582735776	1136.248448863869	196.018626962492	586.416268476215	976.426296915395	45.060746669626	569.417116950573	1064.538480460120	37.803541516171	637.033906544057	1271.434001935086	43.696998386649	613.215981418578	873.470622834834	215.053464770575	357.117130600378	934.479611988562	163.800726005957	282.994499048597	1036.081122851495	156.476949992881	317.026955508437	1102.865379142904	37.971299638081	294.015783062562	1166.324308599002	1059.025384250213	259.812553797205	1296.467527334860	839.020146622879	271.998243551299	1103.689496868230	1090.568663651131	837.316513050687	1301.835740301805	927.565605348930	829.182576684054	
4	43.184714285714	1145.565918154311	95.761138638898	591.629963611674	950.709769141095	983.533716518773	554.892371700116	1130.604484068694	1410.715027760563	364.380166142666	1221.144432280118	1349.362654547736	534.600189205880	1125.459448854179	1428.741456958061	698.445268966581	1104.283063457657	1478.210719597536	517.721502877336	1183.760558370728	927.850569380948	675.562988924385	1170.101394296448	948.792262740495	400.598381658210	1240.179166189125	730.868308495369	623.533258620985	1170.916715099264	609.371321652825	674.927550800610	1245.463067251732	568.363788387086	585.737936317022	1250.161664846648	471.220891918623	584.580987622944	1255.029922994034	763.197645636195	430.603622902492	1211.613274883828	637.670783393289	347.325465028450	1309.345131060194	571.718080235445	416.884005218921	1319.027812622894	481.179361150649	404.859561565937	1248.462090157469	419.641335927371	383.815422763488	1112.457646131677	393.586966641392	312.160720961126	1081.527409979431	261.966964802602	353.607556736134	1203.305018322047	384.007150412990	589.878475817172	1120.352372606070	291.409475688162	655.490195329615	1134.646113115344	194.668200307791	585.640429411867	972.117693078734	45.514723296808	569.425084890867	1060.144994514962	37.950318233995	636.938786088198	1267.070157819517	43.114508324309	613.274648792889	883.821963318194	218.063254474733	360.902951606147	944.824979290973	168.151027479305	285.869785241437	1046.585783953500	160.435304599224	319.727206884793	1113.316152922430	41.656493684552	294.554013618922	1146.870408059772	1051.892776600206	264.999055216463	1252.185375461221	820.189578435347	277.772790972014	1123.277057130769	1088.804279424910	839.398225460769	1334.993372033499	946.977253722514	824.972931302479	
